<?xml version="1.0" encoding="UTF-8"?>
<svg id="Calque_1" xmlns="http://www.w3.org/2000/svg" viewBox="0 0 481.61 503.23">
  <g id="FRAME_0">
    <path class="cls-1" d="M259.51,122.28l-25.78,14.71,8.87.8,9.43,2.9,21.88,11.42,41.38,23.48,52,30.36,24.39,15.4,8.87,7.56,7.96,8.36,7.56,9.43,7.56,11.38,7.32,13.69,4.38,10.74,3.82,12.45,2.55,14.05,1.03,25.35.28,39.67-.4,73.05-1.07,22.28c-.95,6.82-2.85,12.52-5.69,17.11l30.42-18.94,3.8-4.07,2.9-3.88.97-3.59.9-4.13c.61-.95.88-2.45.8-4.5l1.07-22.16.4-54.23-.4-58.09-1.19-24.95c-1.86-15.54-7.61-31.67-17.27-48.38l-7.4-11.42-7.04-9.15-8.63-9.15-9.39-7.96-22.04-14.05-47.19-27.73-49.34-27.97-21.65-11.14-8.99-1.79-7.03.2M82.01,181.17c0-3.98,1.41-8.53,4.22-13.65l3.46-4.93,6.77-7.62,121.74-71.02,20.69-13.29c12.27-8.69,18.88-25.44,16.43-35.84,0,0-.54-2.12-1.11-2.83-1-1.26-1.07-1.26-1.85-1.78s-1.25-.56-2.46-.78c-.66-.12-2.2.1-2.66.33l-2.8,1.4-71.9,41.1-52.36,30.64-24.27,15.28-8.51,7.16-8.08,8.48-6.76,8.63-6.25,10.07-.64.52-5.73,11.02-4.5,10.86-3.3,11.02-2.15,11.14-.24,3.98-.95,29.44v99.19l1.19,28.01,1.87,8.36,3.3,7.4,4.54,5.97c8.04,6.82,16.21,9.3,24.51,7.44,5.68-1.43,30.57-14.92,74.68-40.47l46.95-27.57,21.88-14.05,8.63-7.32,9.27-9.67,7.44-9.67,7.28-11.3,6.49-12.45,4.66-11.54,3.7-12.73,2.15-11.26.64-8.63-5.69-3.58-17.23-9.55c-.8-.53-2.31-.76-4.54-.68l-1.99.68c-1.17,1.54-2.04,3.66-2.63,6.37.42,24.24-.07,37.68-1.47,40.31-1.41,7.53-6.54,15.41-15.4,23.63l-67.76,39.63-41.78,24.03-18.58,10.19c-4.24,1.78-8.36,1.34-12.33-1.31-3.08-3.18-6.41-3.66-6.57-13.77l-.44-29.21.4-117.78M270.52,344.69c.08-.61,4.31-.97,6.7-1.07l17.51,8.91,99.75,57.14-.28,28.81c-.61,2.55-1.45,4.22-2.51,5.01l-.28.16-3.18.24-3.82-.92-117.66-67.36-26.54-13.81M394.36,404.5l.24-75.04-.4-36.21c-1.33-7-4.24-13.33-8.75-18.98l-5.29-5.05-63.54-37.12-32.87-18.7-.95,9.43-2.23,12.45-2.94,10.07-4.5,11.54-6.64,13.01-6.88,10.86-6.49,8.36-9.55,10.35-8.91,7.56-19.5,12.49-47.87,28.25-48.66,27.69-24.95,13.13c-5.23,2.57-12.56,3.73-22,3.46-4.51.66-21.05-7.69-49.62-25.07-9.39-5.62-15.45-12.75-18.18-21.37-2.86-7.14-4.14-35.82-3.82-86.06l.4-59.56,1.03-27.06,1.99-10.86,3.46-11.94,4.77-12.06,6.25-12.1,6.09-9.55,7.68-10.07,9.31-9.95,8.36-7.16,24.39-15.52,50.41-29.56,55.94-31.99L203.09.52l5.17-.52,4.5,1.31,6.76,3.58,34.78,20.29c5.57,3.18,7.56,10.7,5.97,22.56-1.96,9.36-6.74,17.67-14.32,24.91l-21.25,13.69-123.19,71.62c-5.68,4.14-9.79,9.88-12.33,17.23-1.17,1.94-1.83,4.95-1.99,9.03l-.28,109.42,75.32-43.25,21.25-12.73c6.63-5.23,11.09-12.96,13.37-23.2l.56-4.66.24-26.66,1.07-11.02,2.11-9.39,4.14-9.31,3.18-3.7,1.03-1.87,9.31-7,37.4-21.49c5.31-3.02,10.42-4.48,15.36-4.38,6.63-.19,13.05,1.01,19.26,3.58l22,11.38,41.38,23.48,52.92,30.92,23.2,14.6,10.23,8.36,8.24,8.59,3.82,4.77,4.54,5.85,7.96,12.73,4.62,9.03,4.77,11.54,3.34,10.86,2.63,13.81,1.07,25.19.4,54.91-.4,55.19-1.07,25.46-1.39,11.26c-1.41,4.96-5.59,10.04-10.55,15.24-11.59,7.88-25.69,16.42-42.3,25.62-9.81,5.25-19.14,6.98-27.97,5.17l-9.03-2.67-24.39-12.61-46.31-26.26-55.82-32.47-25.35-15.92c-12.47-11.25-17.55-24.47-15.24-39.67l2.27-5.29,2.9-2.79,2.67-1.87,37.52-21.61,6.09-2.27,4.38.4,1.75.28,21.49,11.14,93.5,53.56"/>
  </g>
</svg>